<svg xmlns="http://www.w3.org/2000/svg" width="512" height="512" viewBox="0 0 512 512"><title>Party Cloud</title><g transform="translate(50 230) rotate(0) scale(1.37)"><path d="M 40 122 C -20 122 -15 44 43 45 C 48 -17 127 -20 151 24 C 206 -3 258 28 257 68 C 315 74 318 131 256 137 L 42 137 Z" fill="#FFFFFF" stroke="#172C42" stroke-width="8" stroke-linecap="round" stroke-linejoin="round" /><ellipse cx="108" cy="91" rx="18" ry="22" fill="#FFFFFF" stroke="#172C42" stroke-width="8"/><ellipse cx="172" cy="91" rx="18" ry="22" fill="#FFFFFF" stroke="#172C42" stroke-width="8"/><ellipse cx="114" cy="95" rx="5" ry="5" fill="#172C42" stroke="#172C42" stroke-width="0"/><ellipse cx="178" cy="95" rx="5" ry="5" fill="#172C42" stroke="#172C42" stroke-width="0"/><path d="M 122 119 Q 143 105 164 119" fill="none" stroke="#172C42" stroke-width="6" stroke-linecap="round" stroke-linejoin="round" /></g><path d="M 170 248 L 255 66 L 348 253 Z" fill="#F49EAF" stroke="#172C42" stroke-width="6" stroke-linecap="round" stroke-linejoin="round" /><ellipse cx="255" cy="71" rx="16" ry="16" fill="#FFD450" stroke="#172C42" stroke-width="4"/><path d="M 206 172 L 297 157 M 189 211 L 315 195" fill="none" stroke="#FFD450" stroke-width="18" stroke-linecap="round" stroke-linejoin="round" /></svg>