<svg xmlns="http://www.w3.org/2000/svg" width="1080" height="1080" viewBox="0 0 1080 1080"><title>Cloud Side-Eye — editable illustration placeholder</title><desc>An oversized expressive cloud gives the viewer a deeply unimpressed sideways glance. No caption text is embedded.</desc><rect width="1080" height="1080" fill="#FFF9ED"/><g transform="translate(140 250) rotate(0) scale(1)"><ellipse cx="394" cy="445" rx="257" ry="27" fill="#E4DBD0" stroke="#172C42" stroke-width="0"/><g transform="translate(92 139) rotate(0) scale(2.05)"><path d="M 40 122 C -20 122 -15 44 43 45 C 48 -17 127 -20 151 24 C 206 -3 258 28 257 68 C 315 74 318 131 256 137 L 42 137 Z" fill="#FFFFFF" stroke="#172C42" stroke-width="8" stroke-linecap="round" stroke-linejoin="round" /></g><ellipse cx="327" cy="323" rx="39" ry="44" fill="#FFFFFF" stroke="#172C42" stroke-width="7"/><ellipse cx="453" cy="323" rx="39" ry="44" fill="#FFFFFF" stroke="#172C42" stroke-width="7"/><ellipse cx="344" cy="331" rx="13" ry="23" fill="#172C42" stroke="#172C42" stroke-width="0"/><ellipse cx="470" cy="331" rx="13" ry="23" fill="#172C42" stroke="#172C42" stroke-width="0"/><path d="M 288 304 L 367 319 M 416 320 L 493 297" fill="none" stroke="#172C42" stroke-width="12" stroke-linecap="round" stroke-linejoin="round" /><path d="M 348 393 Q 394 372 433 392" fill="none" stroke="#172C42" stroke-width="8" stroke-linecap="round" stroke-linejoin="round" /><ellipse cx="270" cy="367" rx="30" ry="11" fill="#F49EAF" stroke="#172C42" stroke-width="0"/><ellipse cx="519" cy="365" rx="30" ry="11" fill="#F49EAF" stroke="#172C42" stroke-width="0"/><path d="M 679 145 l 0 36 M 661 163 h 36" fill="none" stroke="#FF986D" stroke-width="7" stroke-linecap="round" stroke-linejoin="round" /></g></svg>