<svg xmlns="http://www.w3.org/2000/svg" width="1080" height="1080" viewBox="0 0 1080 1080"><title>Pollen Boss Battle — editable illustration placeholder</title><desc>A cheerful cartoon pollen blob faces a tiny tissue-box hero, with no real game branding. No caption text is embedded.</desc><rect width="1080" height="1080" fill="#FFF9ED"/><g transform="translate(140 250) rotate(0) scale(1)"><path d="M 639.0 227.0 L 667.0 227.0" fill="none" stroke="#B3AA49" stroke-width="14" stroke-linecap="round" stroke-linejoin="round" /><ellipse cx="667.0" cy="227.0" rx="14" ry="14" fill="#FFD450" stroke="#172C42" stroke-width="5"/><path d="M 627.4781847254617 270.0 L 651.726896031426 284.0" fill="none" stroke="#B3AA49" stroke-width="14" stroke-linecap="round" stroke-linejoin="round" /><ellipse cx="651.726896031426" cy="284.0" rx="14" ry="14" fill="#FFD450" stroke="#172C42" stroke-width="5"/><path d="M 596.0 301.4781847254617 L 610.0 325.726896031426" fill="none" stroke="#B3AA49" stroke-width="14" stroke-linecap="round" stroke-linejoin="round" /><ellipse cx="610.0" cy="325.726896031426" rx="14" ry="14" fill="#FFD450" stroke="#172C42" stroke-width="5"/><path d="M 553.0 313.0 L 553.0 341.0" fill="none" stroke="#B3AA49" stroke-width="14" stroke-linecap="round" stroke-linejoin="round" /><ellipse cx="553.0" cy="341.0" rx="14" ry="14" fill="#FFD450" stroke="#172C42" stroke-width="5"/><path d="M 510.0 301.47818472546174 L 496.0 325.726896031426" fill="none" stroke="#B3AA49" stroke-width="14" stroke-linecap="round" stroke-linejoin="round" /><ellipse cx="496.0" cy="325.726896031426" rx="14" ry="14" fill="#FFD450" stroke="#172C42" stroke-width="5"/><path d="M 478.52181527453826 270.0 L 454.273103968574 284.0" fill="none" stroke="#B3AA49" stroke-width="14" stroke-linecap="round" stroke-linejoin="round" /><ellipse cx="454.273103968574" cy="284.0" rx="14" ry="14" fill="#FFD450" stroke="#172C42" stroke-width="5"/><path d="M 467.0 227.0 L 439.0 227.0" fill="none" stroke="#B3AA49" stroke-width="14" stroke-linecap="round" stroke-linejoin="round" /><ellipse cx="439.0" cy="227.0" rx="14" ry="14" fill="#FFD450" stroke="#172C42" stroke-width="5"/><path d="M 478.52181527453826 184.00000000000003 L 454.273103968574 170.00000000000003" fill="none" stroke="#B3AA49" stroke-width="14" stroke-linecap="round" stroke-linejoin="round" /><ellipse cx="454.273103968574" cy="170.00000000000003" rx="14" ry="14" fill="#FFD450" stroke="#172C42" stroke-width="5"/><path d="M 509.99999999999994 152.5218152745383 L 495.99999999999994 128.27310396857402" fill="none" stroke="#B3AA49" stroke-width="14" stroke-linecap="round" stroke-linejoin="round" /><ellipse cx="495.99999999999994" cy="128.27310396857402" rx="14" ry="14" fill="#FFD450" stroke="#172C42" stroke-width="5"/><path d="M 553.0 141.0 L 553.0 113.0" fill="none" stroke="#B3AA49" stroke-width="14" stroke-linecap="round" stroke-linejoin="round" /><ellipse cx="553.0" cy="113.0" rx="14" ry="14" fill="#FFD450" stroke="#172C42" stroke-width="5"/><path d="M 596.0 152.52181527453828 L 610.0 128.273103968574" fill="none" stroke="#B3AA49" stroke-width="14" stroke-linecap="round" stroke-linejoin="round" /><ellipse cx="610.0" cy="128.273103968574" rx="14" ry="14" fill="#FFD450" stroke="#172C42" stroke-width="5"/><path d="M 627.4781847254617 183.99999999999997 L 651.726896031426 169.99999999999994" fill="none" stroke="#B3AA49" stroke-width="14" stroke-linecap="round" stroke-linejoin="round" /><ellipse cx="651.726896031426" cy="169.99999999999994" rx="14" ry="14" fill="#FFD450" stroke="#172C42" stroke-width="5"/><ellipse cx="553" cy="227" rx="91" ry="91" fill="#FFD450" stroke="#172C42" stroke-width="8"/><ellipse cx="523" cy="224" rx="19" ry="24" fill="#FFFFFF" stroke="#172C42" stroke-width="5"/><ellipse cx="585" cy="224" rx="19" ry="24" fill="#FFFFFF" stroke="#172C42" stroke-width="5"/><ellipse cx="529" cy="227" rx="7" ry="7" fill="#172C42" stroke="#172C42" stroke-width="0"/><ellipse cx="579" cy="227" rx="7" ry="7" fill="#172C42" stroke="#172C42" stroke-width="0"/><path d="M 518 272 Q 554 308 589 271" fill="none" stroke="#172C42" stroke-width="6" stroke-linecap="round" stroke-linejoin="round" /><path d="M 155 315 L 269 281 L 334 318 L 220 352 Z" fill="#87CFE4" stroke="#172C42" stroke-width="8" stroke-linecap="round" stroke-linejoin="round" /><path d="M 155 315 L 220 352 L 220 458 L 155 413 Z" fill="#58ADC6" stroke="#172C42" stroke-width="8" stroke-linecap="round" stroke-linejoin="round" /><path d="M 220 352 L 334 318 L 334 422 L 220 458 Z" fill="#87CFE4" stroke="#172C42" stroke-width="8" stroke-linecap="round" stroke-linejoin="round" /><path d="M 216 316 Q 231 276 216 228 Q 262 203 284 251 Q 315 259 288 314 Z" fill="#FFFFFF" stroke="#172C42" stroke-width="6" stroke-linecap="round" stroke-linejoin="round" /><ellipse cx="255" cy="382" rx="7" ry="11" fill="#172C42" stroke="#172C42" stroke-width="0"/><ellipse cx="304" cy="369" rx="7" ry="11" fill="#172C42" stroke="#172C42" stroke-width="0"/><path d="M 267 408 q 17 -10 30 -7" fill="none" stroke="#172C42" stroke-width="5" stroke-linecap="round" stroke-linejoin="round" /><path d="M 345 374 L 390 348 L 425 375 L 412 436 L 385 459 L 356 435 Z" fill="#F49EAF" stroke="#172C42" stroke-width="6" stroke-linecap="round" stroke-linejoin="round" /><path d="M 385 381 Q 388 396 403 399 Q 388 402 385 417 Q 382 402 367 399 Q 382 396 385 381 Z" fill="#FFFFFF" stroke="#172C42" stroke-width="0" stroke-linecap="round" stroke-linejoin="round" /><ellipse cx="83" cy="204" rx="10" ry="10" fill="#FFD450" stroke="#172C42" stroke-width="4"/><ellipse cx="430" cy="103" rx="10" ry="10" fill="#FFD450" stroke="#172C42" stroke-width="4"/><ellipse cx="719" cy="416" rx="10" ry="10" fill="#FFD450" stroke="#172C42" stroke-width="4"/></g></svg>