<svg xmlns="http://www.w3.org/2000/svg" width="1080" height="1080" viewBox="0 0 1080 1080"><title>Rainbow Plot Twist — editable illustration placeholder</title><desc>A bright rainbow appears between grumpy clouds like a cheerful surprise ending. No caption text is embedded.</desc><rect width="1080" height="1080" fill="#FFF9ED"/><g transform="translate(140 250) rotate(0) scale(1)"><path d="M 191 369 A 209 209 0 0 1 609 369" fill="none" stroke="#F49EAF" stroke-width="35" stroke-linecap="round" stroke-linejoin="round" /><path d="M 226 369 A 174 174 0 0 1 574 369" fill="none" stroke="#FF986D" stroke-width="35" stroke-linecap="round" stroke-linejoin="round" /><path d="M 261 369 A 139 139 0 0 1 539 369" fill="none" stroke="#FFD450" stroke-width="35" stroke-linecap="round" stroke-linejoin="round" /><path d="M 296 369 A 104 104 0 0 1 504 369" fill="none" stroke="#9FD7AF" stroke-width="35" stroke-linecap="round" stroke-linejoin="round" /><path d="M 331 369 A 69 69 0 0 1 469 369" fill="none" stroke="#87CFE4" stroke-width="35" stroke-linecap="round" stroke-linejoin="round" /><g transform="translate(60 327) rotate(0) scale(0.84)"><path d="M 40 122 C -20 122 -15 44 43 45 C 48 -17 127 -20 151 24 C 206 -3 258 28 257 68 C 315 74 318 131 256 137 L 42 137 Z" fill="#FFFFFF" stroke="#172C42" stroke-width="8" stroke-linecap="round" stroke-linejoin="round" /><ellipse cx="108" cy="91" rx="18" ry="22" fill="#FFFFFF" stroke="#172C42" stroke-width="8"/><ellipse cx="172" cy="91" rx="18" ry="22" fill="#FFFFFF" stroke="#172C42" stroke-width="8"/><ellipse cx="114" cy="95" rx="5" ry="5" fill="#172C42" stroke="#172C42" stroke-width="0"/><ellipse cx="178" cy="95" rx="5" ry="5" fill="#172C42" stroke="#172C42" stroke-width="0"/><path d="M 122 119 Q 143 105 164 119" fill="none" stroke="#172C42" stroke-width="6" stroke-linecap="round" stroke-linejoin="round" /></g><g transform="translate(489 327) rotate(0) scale(0.84)"><path d="M 40 122 C -20 122 -15 44 43 45 C 48 -17 127 -20 151 24 C 206 -3 258 28 257 68 C 315 74 318 131 256 137 L 42 137 Z" fill="#FFFFFF" stroke="#172C42" stroke-width="8" stroke-linecap="round" stroke-linejoin="round" /><ellipse cx="108" cy="91" rx="18" ry="22" fill="#FFFFFF" stroke="#172C42" stroke-width="8"/><ellipse cx="172" cy="91" rx="18" ry="22" fill="#FFFFFF" stroke="#172C42" stroke-width="8"/><ellipse cx="114" cy="95" rx="5" ry="5" fill="#172C42" stroke="#172C42" stroke-width="0"/><ellipse cx="178" cy="95" rx="5" ry="5" fill="#172C42" stroke="#172C42" stroke-width="0"/><path d="M 122 119 Q 143 105 164 119" fill="none" stroke="#172C42" stroke-width="6" stroke-linecap="round" stroke-linejoin="round" /></g><path d="M 143 131 Q 146 155 170 158 Q 146 161 143 185 Q 140 161 116 158 Q 140 155 143 131 Z" fill="#FFD450" stroke="#172C42" stroke-width="0" stroke-linecap="round" stroke-linejoin="round" /><path d="M 644 176 Q 647 201 672 204 Q 647 207 644 232 Q 641 207 616 204 Q 641 201 644 176 Z" fill="#FF986D" stroke="#172C42" stroke-width="0" stroke-linecap="round" stroke-linejoin="round" /><path d="M 525 34 Q 528 51 545 54 Q 528 57 525 74 Q 522 57 505 54 Q 522 51 525 34 Z" fill="#FFD450" stroke="#172C42" stroke-width="0" stroke-linecap="round" stroke-linejoin="round" /><path d="M 81 290 l -10 20 M 719 326 l -10 20" fill="none" stroke="#87CFE4" stroke-width="7" stroke-linecap="round" stroke-linejoin="round" /></g></svg>