<svg xmlns="http://www.w3.org/2000/svg" width="1080" height="1080" viewBox="0 0 1080 1080"><title>Snow Day Victory — editable illustration placeholder</title><desc>A bundled penguin celebrates three tiny flakes on a little snow mound. No caption text is embedded.</desc><rect width="1080" height="1080" fill="#FFF9ED"/><g transform="translate(140 250) rotate(0) scale(1)"><ellipse cx="396" cy="479" rx="212" ry="34" fill="#D7EDF3" stroke="#172C42" stroke-width="0"/><path d="M 288 310 Q 200 269 229 226 Q 246 211 310 263 Z" fill="#172C42" stroke="#172C42" stroke-width="8" stroke-linecap="round" stroke-linejoin="round" /><path d="M 498 298 Q 562 210 584 232 Q 603 256 515 348 Z" fill="#172C42" stroke="#172C42" stroke-width="8" stroke-linecap="round" stroke-linejoin="round" /><ellipse cx="399" cy="326" rx="117" ry="151" fill="#172C42" stroke="#172C42" stroke-width="8"/><ellipse cx="402" cy="345" rx="82" ry="120" fill="#FFFFFF" stroke="#172C42" stroke-width="0"/><ellipse cx="354" cy="474" rx="51" ry="22" fill="#FF986D" stroke="#172C42" stroke-width="8"/><ellipse cx="455" cy="474" rx="51" ry="22" fill="#FF986D" stroke="#172C42" stroke-width="8"/><ellipse cx="365" cy="232" rx="31" ry="39" fill="#FFFFFF" stroke="#172C42" stroke-width="0"/><ellipse cx="429" cy="232" rx="31" ry="39" fill="#FFFFFF" stroke="#172C42" stroke-width="0"/><ellipse cx="374" cy="235" rx="7" ry="7" fill="#172C42" stroke="#172C42" stroke-width="0"/><ellipse cx="420" cy="235" rx="7" ry="7" fill="#172C42" stroke="#172C42" stroke-width="0"/><path d="M 376 273 L 430 271 L 403 301 Z" fill="#FF986D" stroke="#172C42" stroke-width="5" stroke-linecap="round" stroke-linejoin="round" /><path d="M 288 207 Q 303 94 399 114 Q 496 119 507 208 Z" fill="#F49EAF" stroke="#172C42" stroke-width="8" stroke-linecap="round" stroke-linejoin="round" /><rect x="286" y="185" width="225" height="35" rx="13" fill="#F49EAF" stroke="#172C42" stroke-width="6"/><ellipse cx="397" cy="105" rx="24" ry="24" fill="#F49EAF" stroke="#172C42" stroke-width="6"/><path d="M 290 301 Q 401 348 505 304 L 512 340 Q 397 383 290 339 Z" fill="#87CFE4" stroke="#172C42" stroke-width="8" stroke-linecap="round" stroke-linejoin="round" sw="7"/><path d="M 462 347 L 489 410 L 451 425 L 421 360 Z" fill="#87CFE4" stroke="#172C42" stroke-width="6" stroke-linecap="round" stroke-linejoin="round" /><path d="M 157.0 130.0 L 199.0 130.0" fill="none" stroke="#87CFE4" stroke-width="6" stroke-linecap="round" stroke-linejoin="round" /><path d="M 167.5 111.81346652052679 L 188.5 148.1865334794732" fill="none" stroke="#87CFE4" stroke-width="6" stroke-linecap="round" stroke-linejoin="round" /><path d="M 188.5 111.81346652052679 L 167.5 148.1865334794732" fill="none" stroke="#87CFE4" stroke-width="6" stroke-linecap="round" stroke-linejoin="round" /><path d="M 605.0 157.0 L 647.0 157.0" fill="none" stroke="#87CFE4" stroke-width="6" stroke-linecap="round" stroke-linejoin="round" /><path d="M 615.5 138.8134665205268 L 636.5 175.1865334794732" fill="none" stroke="#87CFE4" stroke-width="6" stroke-linecap="round" stroke-linejoin="round" /><path d="M 636.5 138.8134665205268 L 615.5 175.1865334794732" fill="none" stroke="#87CFE4" stroke-width="6" stroke-linecap="round" stroke-linejoin="round" /><path d="M 628.0 397.0 L 670.0 397.0" fill="none" stroke="#87CFE4" stroke-width="6" stroke-linecap="round" stroke-linejoin="round" /><path d="M 638.5 378.8134665205268 L 659.5 415.1865334794732" fill="none" stroke="#87CFE4" stroke-width="6" stroke-linecap="round" stroke-linejoin="round" /><path d="M 659.5 378.8134665205268 L 638.5 415.1865334794732" fill="none" stroke="#87CFE4" stroke-width="6" stroke-linecap="round" stroke-linejoin="round" /><path d="M 182 348 Q 185 365 202 368 Q 185 371 182 388 Q 179 371 162 368 Q 179 365 182 348 Z" fill="#FFD450" stroke="#172C42" stroke-width="0" stroke-linecap="round" stroke-linejoin="round" /><path d="M 592 67 Q 595 84 612 87 Q 595 90 592 107 Q 589 90 572 87 Q 589 84 592 67 Z" fill="#FFD450" stroke="#172C42" stroke-width="0" stroke-linecap="round" stroke-linejoin="round" /></g></svg>