<svg xmlns="http://www.w3.org/2000/svg" width="1080" height="1080" viewBox="0 0 1080 1080"><title>Temperature Whiplash — editable illustration placeholder</title><desc>A scarf and mittens occupy one side of a split scene while sunglasses and a sun occupy the other. No caption text is embedded.</desc><rect width="1080" height="1080" fill="#FFF9ED"/><g transform="translate(140 250) rotate(0) scale(1)"><rect x="18" y="27" width="369" height="456" rx="27" fill="#D4EBF1" stroke="#172C42" stroke-width="5"/><rect x="413" y="27" width="369" height="456" rx="27" fill="#FFE7BC" stroke="#172C42" stroke-width="5"/><path d="M 79.0 113.0 L 137.0 113.0" fill="none" stroke="#87CFE4" stroke-width="6" stroke-linecap="round" stroke-linejoin="round" /><path d="M 93.5 87.88526329025129 L 122.5 138.1147367097487" fill="none" stroke="#87CFE4" stroke-width="6" stroke-linecap="round" stroke-linejoin="round" /><path d="M 122.5 87.88526329025127 L 93.5 138.1147367097487" fill="none" stroke="#87CFE4" stroke-width="6" stroke-linecap="round" stroke-linejoin="round" /><path d="M 287.0 426.0 L 329.0 426.0" fill="none" stroke="#87CFE4" stroke-width="6" stroke-linecap="round" stroke-linejoin="round" /><path d="M 297.5 407.8134665205268 L 318.5 444.1865334794732" fill="none" stroke="#87CFE4" stroke-width="6" stroke-linecap="round" stroke-linejoin="round" /><path d="M 318.5 407.8134665205268 L 297.5 444.1865334794732" fill="none" stroke="#87CFE4" stroke-width="6" stroke-linecap="round" stroke-linejoin="round" /><path d="M 739.0 135.0 L 763.0 135.0" fill="none" stroke="#FF986D" stroke-width="12" stroke-linecap="round" stroke-linejoin="round" /><path d="M 728.8 173.0 L 749.6 185.0" fill="none" stroke="#FF986D" stroke-width="12" stroke-linecap="round" stroke-linejoin="round" /><path d="M 701.0 200.8 L 713.0 221.6" fill="none" stroke="#FF986D" stroke-width="12" stroke-linecap="round" stroke-linejoin="round" /><path d="M 663.0 211.0 L 663.0 235.0" fill="none" stroke="#FF986D" stroke-width="12" stroke-linecap="round" stroke-linejoin="round" /><path d="M 625.0 200.8 L 613.0 221.6" fill="none" stroke="#FF986D" stroke-width="12" stroke-linecap="round" stroke-linejoin="round" /><path d="M 597.2 173.0 L 576.4 185.0" fill="none" stroke="#FF986D" stroke-width="12" stroke-linecap="round" stroke-linejoin="round" /><path d="M 587.0 135.0 L 563.0 135.0" fill="none" stroke="#FF986D" stroke-width="12" stroke-linecap="round" stroke-linejoin="round" /><path d="M 597.2 97.0 L 576.4 85.0" fill="none" stroke="#FF986D" stroke-width="12" stroke-linecap="round" stroke-linejoin="round" /><path d="M 625.0 69.2 L 613.0 48.4" fill="none" stroke="#FF986D" stroke-width="12" stroke-linecap="round" stroke-linejoin="round" /><path d="M 663.0 59.0 L 663.0 35.0" fill="none" stroke="#FF986D" stroke-width="12" stroke-linecap="round" stroke-linejoin="round" /><path d="M 701.0 69.2 L 713.0 48.4" fill="none" stroke="#FF986D" stroke-width="12" stroke-linecap="round" stroke-linejoin="round" /><path d="M 728.8 97.0 L 749.6 85.0" fill="none" stroke="#FF986D" stroke-width="12" stroke-linecap="round" stroke-linejoin="round" /><ellipse cx="663" cy="135" rx="58" ry="58" fill="#FFD450" stroke="#172C42" stroke-width="8"/><path d="M 623 133 l 20 0 M 678 133 l 20 0" fill="none" stroke="#172C42" stroke-width="7" stroke-linecap="round" stroke-linejoin="round" /><path d="M 648 165 q 28 20 49 -4" fill="none" stroke="#172C42" stroke-width="6" stroke-linecap="round" stroke-linejoin="round" /><path d="M 136 196 Q 199 142 269 196 L 295 254 L 256 272 L 247 238 L 247 388 L 144 388 L 147 238 L 132 273 L 92 254 Z" fill="#87CFE4" stroke="#172C42" stroke-width="6" stroke-linecap="round" stroke-linejoin="round" /><path d="M 174 183 Q 199 209 228 183 L 237 225 L 210 245 L 172 219 Z" fill="#F49EAF" stroke="#172C42" stroke-width="6" stroke-linecap="round" stroke-linejoin="round" /><path d="M 205 233 L 223 324 L 188 333 L 168 224 Z" fill="#F49EAF" stroke="#172C42" stroke-width="5" stroke-linecap="round" stroke-linejoin="round" /><rect x="485" y="286" width="102" height="71" rx="20" fill="#172C42" stroke="#172C42" stroke-width="5"/><rect x="633" y="286" width="102" height="71" rx="20" fill="#172C42" stroke="#172C42" stroke-width="5"/><path d="M 587 306 Q 610 291 633 306" fill="none" stroke="#172C42" stroke-width="10" stroke-linecap="round" stroke-linejoin="round" /><path d="M 504 303 l 32 34 M 651 303 l 32 34" fill="none" stroke="#4B6578" stroke-width="10" stroke-linecap="round" stroke-linejoin="round" /><path d="M 366 244 L 434 244 M 419 229 L 434 244 L 419 259 M 434 301 L 366 301 M 381 285 L 366 301 L 381 317" fill="none" stroke="#172C42" stroke-width="8" stroke-linecap="round" stroke-linejoin="round" /></g></svg>